<svg width="374" height="248" viewBox="0 0 374 248" fill="none" xmlns="http://www.w3.org/2000/svg">
<path d="M240.466 99.669L246.83 89.504L253.452 89.821L246.321 100.494C246.439 101.061 246.341 101.702 246.037 102.346C245.734 102.99 245.238 103.61 244.604 104.138C243.971 104.666 243.225 105.081 242.451 105.335C241.677 105.588 240.905 105.672 240.222 105.576C239.539 105.479 238.973 105.207 238.586 104.79C238.2 104.372 238.008 103.826 238.034 103.212C238.059 102.598 238.3 101.942 238.729 101.316C239.159 100.69 239.76 100.119 240.466 99.669Z" fill="#F7AEAE"/>
<path d="M372.958 248H-23.9582C-24.2345 248 -24.4995 247.947 -24.6949 247.854C-24.8902 247.76 -25 247.633 -25 247.5C-25 247.367 -24.8902 247.24 -24.6949 247.146C-24.4995 247.053 -24.2345 247 -23.9582 247H372.958C373.235 247 373.499 247.053 373.695 247.146C373.89 247.24 374 247.367 374 247.5C374 247.633 373.89 247.76 373.695 247.854C373.499 247.947 373.235 248 372.958 248Z" fill="#CACACA"/>
<path d="M312.419 241.048H319.48L322.84 212.958H312.417L312.419 241.048Z" fill="#FFB8B8"/>
<path d="M310.617 238.67H324.525C326.876 238.67 329.13 239.633 330.792 241.347C332.454 243.061 333.388 245.386 333.388 247.81V248.107L310.618 248.108L310.617 238.67Z" fill="#2F2E41"/>
<path d="M336.163 241.048H343.224L346.584 212.958H336.161L336.163 241.048Z" fill="#FFB8B8"/>
<path d="M334.361 238.67H348.269C350.62 238.67 352.874 239.633 354.536 241.347C356.198 243.061 357.132 245.386 357.132 247.81V248.107L334.362 248.108L334.361 238.67Z" fill="#2F2E41"/>
<path d="M323.518 142.403L325.212 231.519L311.509 230.642L302.002 173.88L298.999 135.178L323.518 142.403Z" fill="#2F2E41"/>
<path d="M347.036 127.438L348.956 232.932L332.975 232.461L329.523 169.752L323.518 147.047L299 135.179L303.003 106.798L339.03 106.282L347.036 127.438Z" fill="#2F2E41"/>
<path d="M319.483 33.0066C326.251 33.0066 331.737 27.3484 331.737 20.3687C331.737 13.389 326.251 7.7308 319.483 7.7308C312.714 7.7308 307.228 13.389 307.228 20.3687C307.228 27.3484 312.714 33.0066 319.483 33.0066Z" fill="#FFB8B8"/>
<path d="M329.647 38.3304L331.524 41.2631L336.528 55.7114L332.525 111.957L309.007 112.474L306.005 47.9709L312.294 39.8641L329.647 38.3304Z" fill="#CCCCCC"/>
<path d="M303.466 49.0143L301.244 45.125C301.244 45.125 300.18 44.5504 297.006 46.3315C293.832 48.1126 264.684 62.4847 264.684 62.4847L239.043 93.81L254.714 94.208L268.175 75.934L288.863 67.4792L303.466 49.0143Z" fill="#2F2E41"/>
<path d="M347.536 49.0036H350.538L358.044 90.801L351.039 123.31L344.034 111.442L346.035 98.541L345.034 87.189L341.532 80.48L347.536 49.0036Z" fill="#2F2E41"/>
<path d="M326.724 20.3687L324.496 19.7942C324.496 19.7942 322.825 10.0286 318.925 11.1775C315.026 12.3264 305 13.4753 305 8.8797C305 4.2841 314.469 0.263002 320.04 0.837402C325.61 1.4119 332.724 3.3176 334.522 11.7519C337.405 25.2726 328.574 28.6877 328.574 28.6877L328.721 28.1954C329.129 26.8286 329.159 25.3712 328.806 23.9882C328.453 22.6051 327.732 21.3513 326.724 20.3687Z" fill="#2F2E41"/>
<path d="M292.995 49.0032L309.007 42.2949L312.76 39.4568L324.019 90.801L329.273 37.9088L350.038 49.0032L343.033 84.093L342.032 97.509L345.034 108.346C345.034 108.346 355.542 116.086 352.04 124.342C348.537 132.598 344.534 133.115 344.534 133.115C344.534 133.115 327.521 116.602 326.52 112.474C325.52 108.346 324.019 101.121 324.019 101.121C324.019 101.121 315.512 134.147 305.505 133.631C295.497 133.114 295.497 122.278 295.497 122.278L297.999 110.926L302.002 99.057L300.001 79.448L292.995 49.0032Z" fill="#2F2E41"/>
<path d="M338.866 78.479C338.536 78.478 338.208 78.442 337.888 78.37L337.825 78.355L337.767 78.33C335.656 77.417 333.874 76.211 332.473 74.746C331.313 73.526 330.408 72.1412 329.8 70.6532C329.072 68.8717 328.722 66.9919 328.767 65.1036C328.768 65.064 328.768 65.0334 328.768 65.0123C328.768 64.0944 329.359 63.289 330.274 62.9604C330.973 62.709 337.328 60.4583 337.787 60.2957C338.652 59.9221 339.574 60.2339 339.722 60.2885C340.053 60.4052 345.927 62.477 347.197 62.9983C348.505 63.5355 348.854 64.5006 348.854 64.9861C348.854 67.1843 348.413 69.2387 347.542 71.0923C346.839 72.5926 345.842 73.978 344.595 75.187C342.19 77.521 339.784 78.349 339.761 78.356C339.473 78.441 339.17 78.483 338.866 78.479ZM338.301 77.271C338.509 77.311 338.989 77.371 339.302 77.273C339.7 77.148 341.714 76.247 343.596 74.421C346.196 71.8982 347.515 68.7265 347.517 64.9942C347.512 64.9186 347.45 64.3793 346.622 64.0392C345.377 63.5281 339.271 61.3752 339.21 61.3535L339.193 61.3473C339.065 61.3011 338.658 61.2037 338.377 61.3305L338.321 61.3531C338.253 61.3772 331.507 63.7662 330.788 64.0247C330.285 64.2055 330.105 64.6534 330.105 65.0123C330.105 65.0385 330.105 65.0767 330.103 65.126C330.046 67.6798 330.731 73.964 338.301 77.271Z" fill="#3F3D56"/>
<path d="M246.343 105.932C245.798 106.476 245.124 106.581 244.98 106.144C244.9 105.903 244.61 105.853 241.229 105.503C237.019 105.068 236.61 105.053 235.973 105.316C235.413 105.546 235.3 105.714 234.364 107.716C233.901 108.706 233.529 109.349 233.341 109.487C232.845 109.849 232.095 109.942 231.407 109.726C230.219 109.354 230.033 109.334 229.577 109.522L229.12 109.71L228.026 112.396C227.327 114.114 226.886 115.062 226.805 115.026C226.724 114.991 226.319 115.851 225.692 117.391C225.149 118.723 224.618 119.875 224.51 119.952C224.402 120.028 224.247 120.163 224.166 120.253C224.05 120.381 223.874 120.351 223.321 120.107C222.937 119.937 222.608 119.734 222.589 119.654C222.532 119.409 222.32 119.391 222.226 119.623C222.142 119.828 222.051 119.806 220.922 119.308C219.728 118.781 219.707 118.766 219.697 118.427C219.692 118.238 219.591 117.933 219.472 117.749C219.328 117.526 219.291 117.184 219.36 116.708C219.498 115.758 219.739 115.348 220.071 115.494C220.323 115.605 220.361 115.523 223.605 107.66L226.884 99.714L226.967 98.374C227.012 97.637 227.041 96.899 227.03 96.734C227.013 96.472 227.091 96.425 227.631 96.368C227.972 96.332 228.317 96.231 228.398 96.144C228.479 96.056 228.715 95.982 228.922 95.978C229.323 95.971 229.429 95.879 229.267 95.677C229.096 95.464 229.415 94.911 229.776 94.799C230.272 94.644 230.703 94.881 230.92 95.429C231.022 95.685 231.107 95.948 231.109 96.013C231.111 96.079 231.378 96.213 231.701 96.312C232.404 96.527 232.89 96.343 233.266 95.719C233.595 95.175 233.628 94.793 233.396 94.21C233.191 93.693 233.356 93.576 233.82 93.911C234.363 94.303 234.621 94.953 234.634 95.964C234.649 97.071 234.945 97.717 235.58 98.027C236.719 98.583 237.307 98.659 238.012 98.34C238.456 98.14 239.162 98.142 239.39 98.345C239.501 98.444 240.913 98.534 243.068 98.58C247.094 98.666 246.941 98.604 246.632 100.02L246.445 100.877L246.936 101.006C247.206 101.077 247.482 101.15 247.548 101.168C247.714 101.212 247.377 103.587 247.056 104.627C246.853 105.283 246.686 105.589 246.343 105.932ZM233.403 107.2C232.983 106.633 232.181 106.276 231.392 106.305C230.813 106.326 230.792 106.342 230.55 106.939C230.045 108.18 230.804 109.283 232.158 109.277C232.765 109.274 233.178 108.948 233.473 108.237C233.706 107.676 233.701 107.604 233.403 107.2ZM233.625 106.228C233.301 106.085 233.229 106.272 233.504 106.545C233.869 106.908 233.905 106.912 233.851 106.587C233.825 106.433 233.723 106.271 233.625 106.228ZM232.692 105.363C232.345 105.311 232.275 105.449 232.511 105.721C232.641 105.871 232.773 105.906 232.991 105.85C233.258 105.781 233.274 105.752 233.132 105.589C233.044 105.488 232.846 105.386 232.692 105.363ZM231.85 105.445C231.752 105.402 231.603 105.432 231.519 105.512C231.324 105.696 231.364 105.778 231.665 105.807C231.954 105.835 232.098 105.554 231.85 105.445ZM230.488 95.623C230.436 95.317 230.215 95.18 229.921 95.272C229.654 95.355 229.733 95.818 230.038 95.953C230.432 96.126 230.557 96.035 230.488 95.623Z" fill="black"/>
<path d="M338.838 64.9478C338.828 64.957 338.818 64.9667 338.808 64.9759C338.061 64.2801 337.052 63.8873 335.999 63.8819C334.946 63.8765 333.933 64.2591 333.178 64.9473C332.42 65.638 331.983 66.5809 331.96 67.572C331.938 68.563 332.332 69.5225 333.058 70.2427L333.057 70.2436L333.095 70.28L338.658 75.654L344.425 70.3993L344.409 70.3838C344.419 70.3751 344.429 70.3671 344.439 70.3583C345.203 69.6615 345.642 68.7082 345.657 67.7081C345.673 66.7081 345.264 65.7431 344.522 65.0257C343.779 64.3082 342.763 63.8969 341.697 63.8823C340.631 63.8677 339.602 64.251 338.838 64.9478Z" fill="#FC8585"/>
<path d="M207.891 162.379C207.851 162.438 207.788 162.479 207.713 162.495C207.637 162.512 207.552 162.504 207.47 162.472C207.388 162.439 207.313 162.385 207.256 162.316C207.199 162.248 207.163 162.168 207.152 162.089C206.74 157.835 206.889 153.669 207.595 149.688C208.67 143.448 211.612 134.907 219.52 129.653C219.558 129.628 219.602 129.611 219.651 129.604C219.699 129.598 219.751 129.6 219.803 129.613C219.854 129.625 219.906 129.647 219.953 129.677C220 129.706 220.043 129.744 220.079 129.786C220.115 129.829 220.143 129.876 220.161 129.925C220.18 129.973 220.189 130.023 220.187 130.071C220.186 130.119 220.174 130.164 220.153 130.203C220.132 130.242 220.102 130.276 220.064 130.301C212.318 135.447 209.433 143.836 208.377 149.967C207.681 153.883 207.533 157.981 207.937 162.166C207.947 162.245 207.931 162.32 207.891 162.379Z" fill="#CCCCCC"/>
<path d="M240.466 99.669L246.83 89.504L253.452 89.821L246.321 100.494C246.439 101.061 246.341 101.702 246.037 102.346C245.734 102.99 245.238 103.61 244.604 104.138C243.971 104.666 243.225 105.081 242.451 105.335C241.677 105.588 240.905 105.672 240.222 105.576C239.539 105.479 238.973 105.207 238.586 104.79C238.2 104.372 238.008 103.826 238.034 103.212C238.059 102.598 238.3 101.942 238.729 101.316C239.159 100.69 239.76 100.119 240.466 99.669Z" fill="#F7AEAE"/>
<path d="M312.419 241.048H319.48L322.84 212.958H312.417L312.419 241.048Z" fill="#FFB8B8"/>
<path d="M336.163 241.048H343.224L346.584 212.958H336.161L336.163 241.048Z" fill="#FFB8B8"/>
<path d="M323.518 142.403L325.212 231.519L311.509 230.642L302.002 173.88L298.999 135.178L323.518 142.403Z" fill="#2F2E41"/>
<path d="M347.036 127.438L348.956 232.932L332.975 232.461L329.523 169.752L323.518 147.047L299 135.179L303.003 106.798L339.03 106.282L347.036 127.438Z" fill="#2F2E41"/>
<path d="M319.483 33.0066C326.251 33.0066 331.737 27.3484 331.737 20.3687C331.737 13.389 326.251 7.7308 319.483 7.7308C312.714 7.7308 307.228 13.389 307.228 20.3687C307.228 27.3484 312.714 33.0066 319.483 33.0066Z" fill="#FFB8B8"/>
<path d="M329.647 38.3304L331.524 41.2631L336.528 55.7114L332.525 111.957L309.007 112.474L306.005 47.9709L312.294 39.8641L329.647 38.3304Z" fill="#CCCCCC"/>
<path d="M303.466 49.0143L301.244 45.125C301.244 45.125 300.18 44.5504 297.006 46.3315C293.832 48.1126 264.684 62.4847 264.684 62.4847L239.043 93.81L254.714 94.208L268.175 75.934L288.863 67.4792L303.466 49.0143Z" fill="#2F2E41"/>
<path d="M347.536 49.0036H350.538L358.044 90.801L351.039 123.31L344.034 111.442L346.035 98.541L345.034 87.189L341.532 80.48L347.536 49.0036Z" fill="#2F2E41"/>
<path d="M326.724 20.3687L324.496 19.7942C324.496 19.7942 322.825 10.0286 318.925 11.1775C315.026 12.3264 305 13.4753 305 8.8797C305 4.2841 314.469 0.263002 320.04 0.837402C325.61 1.4119 332.724 3.3176 334.522 11.7519C337.405 25.2726 328.574 28.6877 328.574 28.6877L328.721 28.1954C329.129 26.8286 329.159 25.3712 328.806 23.9882C328.453 22.6051 327.732 21.3513 326.724 20.3687Z" fill="#2F2E41"/>
<path d="M292.995 49.0032L309.007 42.2949L312.76 39.4568L324.019 90.801L329.273 37.9088L350.038 49.0032L343.033 84.093L342.032 97.509L345.034 108.346C345.034 108.346 355.542 116.086 352.04 124.342C348.537 132.598 344.534 133.115 344.534 133.115C344.534 133.115 327.521 116.602 326.52 112.474C325.52 108.346 324.019 101.121 324.019 101.121C324.019 101.121 315.512 134.147 305.505 133.631C295.497 133.114 295.497 122.278 295.497 122.278L297.999 110.926L302.002 99.057L300.001 79.448L292.995 49.0032Z" fill="#2F2E41"/>
<path d="M338.866 78.479C338.536 78.478 338.208 78.442 337.888 78.37L337.825 78.355L337.767 78.33C335.656 77.417 333.874 76.211 332.473 74.746C331.313 73.526 330.408 72.1412 329.8 70.6532C329.072 68.8717 328.722 66.9919 328.767 65.1036C328.768 65.064 328.768 65.0334 328.768 65.0123C328.768 64.0944 329.359 63.289 330.274 62.9604C330.973 62.709 337.328 60.4583 337.787 60.2957C338.652 59.9221 339.574 60.2339 339.722 60.2885C340.053 60.4052 345.927 62.477 347.197 62.9983C348.505 63.5355 348.854 64.5006 348.854 64.9861C348.854 67.1843 348.413 69.2387 347.542 71.0923C346.839 72.5926 345.842 73.978 344.595 75.187C342.19 77.521 339.784 78.349 339.761 78.356C339.473 78.441 339.17 78.483 338.866 78.479ZM338.301 77.271C338.509 77.311 338.989 77.371 339.302 77.273C339.7 77.148 341.714 76.247 343.596 74.421C346.196 71.8982 347.515 68.7265 347.517 64.9942C347.512 64.9186 347.45 64.3793 346.622 64.0392C345.377 63.5281 339.271 61.3752 339.21 61.3535L339.193 61.3473C339.065 61.3011 338.658 61.2037 338.377 61.3305L338.321 61.3531C338.253 61.3772 331.507 63.7662 330.788 64.0247C330.285 64.2055 330.105 64.6534 330.105 65.0123C330.105 65.0385 330.105 65.0767 330.103 65.126C330.046 67.6798 330.731 73.964 338.301 77.271Z" fill="#3F3D56"/>
<path d="M246.343 105.932C245.798 106.476 245.124 106.581 244.98 106.144C244.9 105.903 244.61 105.853 241.229 105.503C237.019 105.068 236.61 105.053 235.973 105.316C235.413 105.546 235.3 105.714 234.364 107.716C233.901 108.706 233.529 109.349 233.341 109.487C232.845 109.849 232.095 109.942 231.407 109.726C230.219 109.354 230.033 109.334 229.577 109.522L229.12 109.71L228.026 112.396C227.327 114.114 226.886 115.062 226.805 115.026C226.724 114.991 226.319 115.851 225.692 117.391C225.149 118.723 224.618 119.875 224.51 119.952C224.402 120.028 224.247 120.163 224.166 120.253C224.05 120.381 223.874 120.351 223.321 120.107C222.937 119.937 222.608 119.734 222.589 119.654C222.532 119.409 222.32 119.391 222.226 119.623C222.142 119.828 222.051 119.806 220.922 119.308C219.728 118.781 219.707 118.766 219.697 118.427C219.692 118.238 219.591 117.933 219.472 117.749C219.328 117.526 219.291 117.184 219.36 116.708C219.498 115.758 219.739 115.348 220.071 115.494C220.323 115.605 220.361 115.523 223.605 107.66L226.884 99.714L226.967 98.374C227.012 97.637 227.041 96.899 227.03 96.734C227.013 96.472 227.091 96.425 227.631 96.368C227.972 96.332 228.317 96.231 228.398 96.144C228.479 96.056 228.715 95.982 228.922 95.978C229.323 95.971 229.429 95.879 229.267 95.677C229.096 95.464 229.415 94.911 229.776 94.799C230.272 94.644 230.703 94.881 230.92 95.429C231.022 95.685 231.107 95.948 231.109 96.013C231.111 96.079 231.378 96.213 231.701 96.312C232.404 96.527 232.89 96.343 233.266 95.719C233.595 95.175 233.628 94.793 233.396 94.21C233.191 93.693 233.356 93.576 233.82 93.911C234.363 94.303 234.621 94.953 234.634 95.964C234.649 97.071 234.945 97.717 235.58 98.027C236.719 98.583 237.307 98.659 238.012 98.34C238.456 98.14 239.162 98.142 239.39 98.345C239.501 98.444 240.913 98.534 243.068 98.58C247.094 98.666 246.941 98.604 246.632 100.02L246.445 100.877L246.936 101.006C247.206 101.077 247.482 101.15 247.548 101.168C247.714 101.212 247.377 103.587 247.056 104.627C246.853 105.283 246.686 105.589 246.343 105.932ZM233.403 107.2C232.983 106.633 232.181 106.276 231.392 106.305C230.813 106.326 230.792 106.342 230.55 106.939C230.045 108.18 230.804 109.283 232.158 109.277C232.765 109.274 233.178 108.948 233.473 108.237C233.706 107.676 233.701 107.604 233.403 107.2ZM233.625 106.228C233.301 106.085 233.229 106.272 233.504 106.545C233.869 106.908 233.905 106.912 233.851 106.587C233.825 106.433 233.723 106.271 233.625 106.228ZM232.692 105.363C232.345 105.311 232.275 105.449 232.511 105.721C232.641 105.871 232.773 105.906 232.991 105.85C233.258 105.781 233.274 105.752 233.132 105.589C233.044 105.488 232.846 105.386 232.692 105.363ZM231.85 105.445C231.752 105.402 231.603 105.432 231.519 105.512C231.324 105.696 231.364 105.778 231.665 105.807C231.954 105.835 232.098 105.554 231.85 105.445ZM230.488 95.623C230.436 95.317 230.215 95.18 229.921 95.272C229.654 95.355 229.733 95.818 230.038 95.953C230.432 96.126 230.557 96.035 230.488 95.623Z" fill="black"/>
<path d="M338.838 64.9478C338.828 64.957 338.818 64.9667 338.808 64.9759C338.061 64.2801 337.052 63.8873 335.999 63.8819C334.946 63.8765 333.933 64.2591 333.178 64.9473C332.42 65.638 331.983 66.5809 331.96 67.572C331.938 68.563 332.332 69.5225 333.058 70.2427L333.057 70.2436L333.095 70.28L338.658 75.654L344.425 70.3993L344.409 70.3838C344.419 70.3751 344.429 70.3671 344.439 70.3583C345.203 69.6615 345.642 68.7082 345.657 67.7081C345.673 66.7081 345.264 65.7431 344.522 65.0257C343.779 64.3082 342.763 63.8969 341.697 63.8823C340.631 63.8677 339.602 64.251 338.838 64.9478Z" fill="#FC8585"/>
<path d="M207.891 162.379C207.851 162.438 207.788 162.479 207.713 162.495C207.637 162.512 207.552 162.504 207.47 162.472C207.388 162.439 207.313 162.385 207.256 162.316C207.199 162.248 207.163 162.168 207.152 162.089C206.74 157.835 206.889 153.669 207.595 149.688C208.67 143.448 211.612 134.907 219.52 129.653C219.558 129.628 219.602 129.611 219.651 129.604C219.699 129.598 219.751 129.6 219.803 129.613C219.854 129.625 219.906 129.647 219.953 129.677C220 129.706 220.043 129.744 220.079 129.786C220.115 129.829 220.143 129.876 220.161 129.925C220.18 129.973 220.189 130.023 220.187 130.071C220.186 130.119 220.174 130.164 220.153 130.203C220.132 130.242 220.102 130.276 220.064 130.301C212.318 135.447 209.433 143.836 208.377 149.967C207.681 153.883 207.533 157.981 207.937 162.166C207.947 162.245 207.931 162.32 207.891 162.379Z" fill="#CCCCCC"/>
<path d="M127.168 98.256L120.803 88.091L114.181 88.409L121.313 99.081C121.194 99.648 121.293 100.289 121.596 100.933C121.899 101.577 122.395 102.198 123.029 102.726C123.662 103.254 124.408 103.668 125.182 103.922C125.957 104.176 126.728 104.259 127.411 104.163C128.094 104.067 128.66 103.795 129.047 103.377C129.434 102.96 129.625 102.413 129.6 101.799C129.574 101.186 129.333 100.529 128.904 99.903C128.474 99.277 127.873 98.707 127.168 98.256Z" fill="#F7AEAE"/>
<path d="M55.2145 239.636L48.1529 239.635L44.7932 211.545L55.2159 211.546L55.2145 239.636Z" fill="#FFB8B8"/>
<path d="M57.0159 237.258L43.1085 237.257H43.108C40.7575 237.257 38.5032 238.22 36.8411 239.934C35.1791 241.648 34.2452 243.973 34.2451 246.397V246.694L57.0155 246.695L57.0159 237.258Z" fill="#2F2E41"/>
<path d="M31.4705 239.636L24.4089 239.635L21.0491 211.545L31.4718 211.546L31.4705 239.636Z" fill="#FFB8B8"/>
<path d="M33.2719 237.258L19.3645 237.257H19.364C17.0134 237.257 14.7592 238.22 13.0971 239.934C11.435 241.648 10.5012 243.973 10.501 246.397V246.694L33.2715 246.695L33.2719 237.258Z" fill="#2F2E41"/>
<path d="M44.1149 140.99L42.4209 230.106L56.1243 229.23L65.6311 172.468L68.6338 133.766L44.1149 140.99Z" fill="#2F2E41"/>
<path d="M20.5973 126.026L18.677 231.519L34.6585 231.048L38.1105 168.339L44.1151 145.635L68.6335 133.766L64.6305 105.385L28.6034 104.869L20.5973 126.026Z" fill="#2F2E41"/>
<path d="M37.9862 36.9177L36.109 39.8504L31.105 54.2988L35.1081 110.545L58.6261 111.061L61.6279 46.5583L55.3389 38.4514L37.9862 36.9177Z" fill="#CCCCCC"/>
<path d="M64.1675 47.6016L66.3892 43.7123C66.3892 43.7123 67.4528 43.1378 70.6271 44.9188C73.8014 46.6999 102.949 61.072 102.949 61.072L128.59 92.398L112.919 92.796L99.4585 74.521L78.77 66.0665L64.1675 47.6016Z" fill="#2F2E41"/>
<path d="M20.0969 47.5909H17.0947L9.58887 89.388L16.5942 121.897L23.5996 110.029L21.5983 97.129L22.5987 85.776L26.1014 79.068L20.0969 47.5909Z" fill="#2F2E41"/>
<path d="M74.6381 47.5906L58.626 40.8823L54.8732 38.0442L43.6146 89.388L38.3607 36.4961L17.595 47.5905L24.6003 82.68L25.6011 96.096L22.5988 106.933C22.5988 106.933 12.0909 114.673 15.5935 122.93C19.0962 131.186 23.0992 131.702 23.0992 131.702C23.0992 131.702 40.112 115.189 41.1128 111.061C42.1135 106.933 43.6146 99.709 43.6146 99.709C43.6146 99.709 52.1211 132.734 62.1286 132.218C72.1361 131.702 72.1361 120.865 72.1361 120.865L69.6342 109.513L65.6312 97.644L67.6327 78.036L74.6381 47.5906Z" fill="#2F2E41"/>
<path d="M28.767 77.067C29.097 77.066 29.4255 77.029 29.7449 76.957L29.8079 76.942L29.8663 76.917C31.9776 76.004 33.7588 74.799 35.1605 73.334C36.3207 72.1136 37.2253 70.7285 37.8336 69.2405C38.5609 67.459 38.9109 65.5793 38.8667 63.691C38.8658 63.6513 38.865 63.6207 38.865 63.5996C38.865 62.6817 38.2742 61.8763 37.3597 61.5478C36.6599 61.2963 30.3054 59.0457 29.8463 58.883C28.9816 58.5094 28.0592 58.8213 27.9115 58.8758C27.5804 58.9925 21.7061 61.0644 20.4367 61.5856C19.1284 62.1228 18.7793 63.0879 18.7793 63.5734C18.7793 65.7716 19.2208 67.8261 20.0916 69.6796C20.7948 71.1799 21.7915 72.565 23.0382 73.774C25.4436 76.109 27.8496 76.936 27.8728 76.943C28.1604 77.029 28.4629 77.07 28.767 77.067ZM29.3328 75.858C29.1242 75.898 28.644 75.959 28.3309 75.86C27.9333 75.735 25.9195 74.835 24.0376 73.009C21.4376 70.4856 20.1183 67.3138 20.1164 63.5815C20.121 63.5059 20.1833 62.9666 21.0115 62.6266C22.2563 62.1154 28.3622 59.9625 28.4237 59.9408L28.4406 59.9346C28.5685 59.8884 28.9758 59.791 29.2565 59.9178L29.3127 59.9404C29.3807 59.9645 36.1261 62.3535 36.8455 62.612C37.3487 62.7928 37.528 63.2407 37.528 63.5996C37.528 63.6259 37.5288 63.664 37.5299 63.7133C37.5874 66.2671 36.9021 72.5511 29.3328 75.858Z" fill="#3F3D56"/>
<path d="M121.29 104.519C121.835 105.063 122.509 105.168 122.654 104.732C122.733 104.49 123.023 104.441 126.405 104.091C130.614 103.655 131.023 103.64 131.66 103.903C132.22 104.134 132.333 104.302 133.269 106.303C133.732 107.293 134.104 107.937 134.293 108.074C134.788 108.436 135.538 108.529 136.227 108.313C137.414 107.942 137.6 107.921 138.057 108.109L138.513 108.297L139.607 110.984C140.306 112.701 140.747 113.65 140.828 113.614C140.909 113.578 141.314 114.438 141.942 115.979C142.484 117.311 143.016 118.463 143.123 118.539C143.231 118.615 143.386 118.751 143.467 118.84C143.584 118.968 143.759 118.938 144.312 118.694C144.696 118.525 145.025 118.321 145.044 118.241C145.102 117.997 145.313 117.979 145.408 118.211C145.491 118.415 145.582 118.393 146.712 117.895C147.905 117.368 147.926 117.353 147.936 117.014C147.941 116.825 148.043 116.52 148.161 116.337C148.306 116.113 148.342 115.771 148.273 115.295C148.135 114.345 147.895 113.935 147.562 114.081C147.31 114.193 147.272 114.11 144.028 106.248L140.749 98.301L140.666 96.962C140.621 96.225 140.593 95.487 140.603 95.321C140.62 95.06 140.543 95.012 140.002 94.956C139.661 94.92 139.316 94.819 139.235 94.731C139.154 94.643 138.918 94.569 138.711 94.565C138.31 94.558 138.204 94.466 138.366 94.265C138.538 94.051 138.218 93.499 137.858 93.386C137.361 93.231 136.931 93.468 136.713 94.016C136.611 94.272 136.526 94.536 136.524 94.601C136.522 94.666 136.256 94.8 135.932 94.899C135.229 95.114 134.744 94.93 134.367 94.306C134.038 93.763 134.006 93.38 134.237 92.797C134.443 92.28 134.277 92.164 133.814 92.498C133.27 92.89 133.012 93.54 132.999 94.551C132.984 95.658 132.688 96.304 132.053 96.614C130.914 97.171 130.326 97.247 129.622 96.928C129.178 96.727 128.471 96.729 128.244 96.932C128.132 97.031 126.72 97.122 124.565 97.168C120.54 97.253 120.692 97.192 121.001 98.607L121.188 99.464L120.697 99.594C120.427 99.665 120.152 99.737 120.086 99.755C119.919 99.799 120.257 102.175 120.578 103.215C120.78 103.871 120.947 104.176 121.29 104.519ZM134.23 105.788C134.65 105.221 135.452 104.863 136.241 104.892C136.82 104.913 136.841 104.929 137.084 105.526C137.588 106.768 136.83 107.87 135.475 107.864C134.868 107.862 134.456 107.536 134.16 106.824C133.927 106.263 133.932 106.191 134.23 105.788ZM134.008 104.815C134.333 104.672 134.404 104.859 134.129 105.132C133.764 105.495 133.728 105.499 133.782 105.174C133.808 105.02 133.91 104.859 134.008 104.815ZM134.941 103.95C135.288 103.898 135.358 104.037 135.122 104.308C134.992 104.458 134.86 104.493 134.642 104.437C134.375 104.368 134.359 104.339 134.501 104.176C134.589 104.075 134.787 103.974 134.941 103.95ZM135.783 104.032C135.881 103.989 136.03 104.019 136.115 104.099C136.31 104.283 136.269 104.365 135.968 104.394C135.679 104.422 135.535 104.142 135.783 104.032ZM137.146 94.211C137.197 93.905 137.418 93.768 137.712 93.859C137.98 93.943 137.9 94.405 137.595 94.54C137.201 94.714 137.077 94.623 137.146 94.211Z" fill="black"/>
<path d="M28.7957 63.5352C28.8058 63.5443 28.815 63.554 28.825 63.5632C29.5724 62.8674 30.581 62.4746 31.634 62.4692C32.6869 62.4639 33.7 62.8464 34.4554 63.5346C35.2133 64.2253 35.6508 65.1682 35.6731 66.1593C35.6955 67.1504 35.301 68.1098 34.575 68.83L34.576 68.8309L34.5384 68.8673L28.975 74.241L23.208 68.9866L23.2241 68.9711C23.2144 68.9625 23.2043 68.9544 23.1947 68.9457C22.4299 68.2488 21.9916 67.2955 21.976 66.2954C21.9605 65.2954 22.369 64.3305 23.1117 63.613C23.8545 62.8955 24.8706 62.4842 25.9365 62.4696C27.0025 62.455 28.0309 62.8383 28.7957 63.5352Z" fill="#FC8585"/>
<path d="M159.742 160.966C159.783 161.025 159.845 161.066 159.921 161.083C159.996 161.099 160.081 161.091 160.163 161.059C160.245 161.027 160.32 160.972 160.377 160.904C160.434 160.835 160.47 160.756 160.481 160.677C160.893 156.422 160.744 152.256 160.038 148.275C158.963 142.035 156.022 133.494 148.113 128.24C148.075 128.215 148.031 128.199 147.983 128.192C147.934 128.185 147.883 128.188 147.831 128.2C147.779 128.212 147.728 128.234 147.68 128.264C147.633 128.294 147.59 128.331 147.554 128.373C147.519 128.416 147.491 128.463 147.472 128.512C147.454 128.561 147.445 128.611 147.446 128.658C147.447 128.706 147.459 128.751 147.48 128.79C147.501 128.83 147.531 128.863 147.569 128.888C155.315 134.035 158.2 142.423 159.257 148.554C159.953 152.47 160.101 156.568 159.697 160.754C159.686 160.833 159.702 160.907 159.742 160.966Z" fill="#CCCCCC"/>
<path d="M162.079 171.532C162.106 171.559 162.13 171.587 162.157 171.614C164.15 169.582 166.84 168.435 169.647 168.42C172.455 168.404 175.157 169.521 177.171 171.531C179.192 173.547 180.359 176.301 180.419 179.195C180.478 182.089 179.426 184.89 177.49 186.993L177.493 186.996L177.393 187.102L162.557 202.795L147.178 187.45L147.221 187.405C147.195 187.38 147.168 187.356 147.143 187.331C145.103 185.296 143.934 182.512 143.893 179.592C143.851 176.672 144.941 173.854 146.921 171.759C148.902 169.664 151.612 168.464 154.454 168.421C157.297 168.378 160.039 169.497 162.079 171.532Z" fill="#FC8585"/>
<path d="M147.532 184.093H145.96L145.708 184.837H144.634L146.158 180.625H147.346L148.87 184.837H147.784L147.532 184.093ZM147.268 183.301L146.746 181.759L146.23 183.301H147.268ZM151.013 182.341H150.461V184.837H149.435V182.341H149.063V181.489H149.435V181.393C149.435 180.981 149.553 180.669 149.789 180.457C150.025 180.241 150.371 180.133 150.827 180.133C150.903 180.133 150.959 180.135 150.995 180.139V181.009C150.799 180.997 150.661 181.025 150.581 181.093C150.501 181.161 150.461 181.283 150.461 181.459V181.489H151.013V182.341ZM153.176 182.341H152.624V184.837H151.598V182.341H151.226V181.489H151.598V181.393C151.598 180.981 151.716 180.669 151.952 180.457C152.188 180.241 152.534 180.133 152.99 180.133C153.066 180.133 153.122 180.135 153.158 180.139V181.009C152.962 180.997 152.824 181.025 152.744 181.093C152.664 181.161 152.624 181.283 152.624 181.459V181.489H153.176V182.341ZM154.174 181.141C153.994 181.141 153.846 181.089 153.73 180.985C153.618 180.877 153.562 180.745 153.562 180.589C153.562 180.429 153.618 180.297 153.73 180.193C153.846 180.085 153.994 180.031 154.174 180.031C154.35 180.031 154.494 180.085 154.606 180.193C154.722 180.297 154.78 180.429 154.78 180.589C154.78 180.745 154.722 180.877 154.606 180.985C154.494 181.089 154.35 181.141 154.174 181.141ZM154.684 181.489V184.837H153.658V181.489H154.684ZM156.453 182.047C156.573 181.863 156.723 181.719 156.903 181.615C157.083 181.507 157.283 181.453 157.503 181.453V182.539H157.221C156.965 182.539 156.773 182.595 156.645 182.707C156.517 182.815 156.453 183.007 156.453 183.283V184.837H155.427V181.489H156.453V182.047ZM162.266 181.453C162.682 181.453 163.012 181.579 163.256 181.831C163.504 182.083 163.628 182.433 163.628 182.881V184.837H162.608V183.019C162.608 182.803 162.55 182.637 162.434 182.521C162.322 182.401 162.166 182.341 161.966 182.341C161.766 182.341 161.608 182.401 161.492 182.521C161.38 182.637 161.324 182.803 161.324 183.019V184.837H160.304V183.019C160.304 182.803 160.246 182.637 160.13 182.521C160.018 182.401 159.862 182.341 159.662 182.341C159.462 182.341 159.304 182.401 159.188 182.521C159.076 182.637 159.02 182.803 159.02 183.019V184.837H157.994V181.489H159.02V181.909C159.124 181.769 159.26 181.659 159.428 181.579C159.596 181.495 159.786 181.453 159.998 181.453C160.25 181.453 160.474 181.507 160.67 181.615C160.87 181.723 161.026 181.877 161.138 182.077C161.254 181.893 161.412 181.743 161.612 181.627C161.812 181.511 162.03 181.453 162.266 181.453ZM164.141 183.157C164.141 182.813 164.205 182.511 164.333 182.251C164.465 181.991 164.643 181.791 164.867 181.651C165.091 181.511 165.341 181.441 165.617 181.441C165.853 181.441 166.059 181.489 166.235 181.585C166.415 181.681 166.553 181.807 166.649 181.963V181.489H167.675V184.837H166.649V184.363C166.549 184.519 166.409 184.645 166.229 184.741C166.053 184.837 165.847 184.885 165.611 184.885C165.339 184.885 165.091 184.815 164.867 184.675C164.643 184.531 164.465 184.329 164.333 184.069C164.205 183.805 164.141 183.501 164.141 183.157ZM166.649 183.163C166.649 182.907 166.577 182.705 166.433 182.557C166.293 182.409 166.121 182.335 165.917 182.335C165.713 182.335 165.539 182.409 165.395 182.557C165.255 182.701 165.185 182.901 165.185 183.157C165.185 183.413 165.255 183.617 165.395 183.769C165.539 183.917 165.713 183.991 165.917 183.991C166.121 183.991 166.293 183.917 166.433 183.769C166.577 183.621 166.649 183.419 166.649 183.163ZM170.283 183.967V184.837H169.761C169.389 184.837 169.099 184.747 168.891 184.567C168.683 184.383 168.579 184.085 168.579 183.673V182.341H168.171V181.489H168.579V180.673H169.605V181.489H170.277V182.341H169.605V183.685C169.605 183.785 169.629 183.857 169.677 183.901C169.725 183.945 169.805 183.967 169.917 183.967H170.283ZM171.371 181.141C171.191 181.141 171.043 181.089 170.927 180.985C170.815 180.877 170.759 180.745 170.759 180.589C170.759 180.429 170.815 180.297 170.927 180.193C171.043 180.085 171.191 180.031 171.371 180.031C171.547 180.031 171.691 180.085 171.803 180.193C171.919 180.297 171.977 180.429 171.977 180.589C171.977 180.745 171.919 180.877 171.803 180.985C171.691 181.089 171.547 181.141 171.371 181.141ZM171.881 181.489V184.837H170.855V181.489H171.881ZM174.148 184.885C173.82 184.885 173.524 184.815 173.26 184.675C173 184.535 172.794 184.335 172.642 184.075C172.494 183.815 172.42 183.511 172.42 183.163C172.42 182.819 172.496 182.517 172.648 182.257C172.8 181.993 173.008 181.791 173.272 181.651C173.536 181.511 173.832 181.441 174.16 181.441C174.488 181.441 174.784 181.511 175.048 181.651C175.312 181.791 175.52 181.993 175.672 182.257C175.824 182.517 175.9 182.819 175.9 183.163C175.9 183.507 175.822 183.811 175.666 184.075C175.514 184.335 175.304 184.535 175.036 184.675C174.772 184.815 174.476 184.885 174.148 184.885ZM174.148 183.997C174.344 183.997 174.51 183.925 174.646 183.781C174.786 183.637 174.856 183.431 174.856 183.163C174.856 182.895 174.788 182.689 174.652 182.545C174.52 182.401 174.356 182.329 174.16 182.329C173.96 182.329 173.794 182.401 173.662 182.545C173.53 182.685 173.464 182.891 173.464 183.163C173.464 183.431 173.528 183.637 173.656 183.781C173.788 183.925 173.952 183.997 174.148 183.997ZM178.485 181.453C178.877 181.453 179.189 181.581 179.421 181.837C179.657 182.089 179.775 182.437 179.775 182.881V184.837H178.755V183.019C178.755 182.795 178.697 182.621 178.581 182.497C178.465 182.373 178.309 182.311 178.113 182.311C177.917 182.311 177.761 182.373 177.645 182.497C177.529 182.621 177.471 182.795 177.471 183.019V184.837H176.445V181.489H177.471V181.933C177.575 181.785 177.715 181.669 177.891 181.585C178.067 181.497 178.265 181.453 178.485 181.453Z" fill="black"/>
<path d="M208.596 171.532C208.622 171.559 208.647 171.587 208.674 171.614C210.667 169.582 213.356 168.435 216.164 168.42C218.972 168.404 221.674 169.521 223.688 171.531C225.709 173.547 226.876 176.301 226.935 179.195C226.995 182.089 225.943 184.89 224.007 186.993L224.01 186.996L223.909 187.102L209.074 202.795L193.695 187.45L193.738 187.405C193.712 187.38 193.685 187.356 193.659 187.331C191.62 185.296 190.451 182.512 190.41 179.592C190.368 176.672 191.458 173.854 193.438 171.759C195.419 169.664 198.129 168.464 200.971 168.421C203.814 168.378 206.556 169.497 208.596 171.532Z" fill="#FC8585"/>
<path d="M194.048 184.093H192.476L192.224 184.837H191.15L192.674 180.625H193.862L195.386 184.837H194.3L194.048 184.093ZM193.784 183.301L193.262 181.759L192.746 183.301H193.784ZM197.53 182.341H196.978V184.837H195.952V182.341H195.58V181.489H195.952V181.393C195.952 180.981 196.07 180.669 196.306 180.457C196.542 180.241 196.888 180.133 197.344 180.133C197.42 180.133 197.476 180.135 197.512 180.139V181.009C197.316 180.997 197.178 181.025 197.098 181.093C197.018 181.161 196.978 181.283 196.978 181.459V181.489H197.53V182.341ZM199.692 182.341H199.14V184.837H198.114V182.341H197.742V181.489H198.114V181.393C198.114 180.981 198.232 180.669 198.468 180.457C198.704 180.241 199.05 180.133 199.506 180.133C199.582 180.133 199.638 180.135 199.674 180.139V181.009C199.478 180.997 199.34 181.025 199.26 181.093C199.18 181.161 199.14 181.283 199.14 181.459V181.489H199.692V182.341ZM200.69 181.141C200.51 181.141 200.362 181.089 200.246 180.985C200.134 180.877 200.078 180.745 200.078 180.589C200.078 180.429 200.134 180.297 200.246 180.193C200.362 180.085 200.51 180.031 200.69 180.031C200.866 180.031 201.01 180.085 201.122 180.193C201.238 180.297 201.296 180.429 201.296 180.589C201.296 180.745 201.238 180.877 201.122 180.985C201.01 181.089 200.866 181.141 200.69 181.141ZM201.2 181.489V184.837H200.174V181.489H201.2ZM202.97 182.047C203.09 181.863 203.24 181.719 203.42 181.615C203.6 181.507 203.8 181.453 204.02 181.453V182.539H203.738C203.482 182.539 203.29 182.595 203.162 182.707C203.034 182.815 202.97 183.007 202.97 183.283V184.837H201.944V181.489H202.97V182.047ZM208.782 181.453C209.198 181.453 209.528 181.579 209.772 181.831C210.02 182.083 210.144 182.433 210.144 182.881V184.837H209.124V183.019C209.124 182.803 209.066 182.637 208.95 182.521C208.838 182.401 208.682 182.341 208.482 182.341C208.282 182.341 208.124 182.401 208.008 182.521C207.896 182.637 207.84 182.803 207.84 183.019V184.837H206.82V183.019C206.82 182.803 206.762 182.637 206.646 182.521C206.534 182.401 206.378 182.341 206.178 182.341C205.978 182.341 205.82 182.401 205.704 182.521C205.592 182.637 205.536 182.803 205.536 183.019V184.837H204.51V181.489H205.536V181.909C205.64 181.769 205.776 181.659 205.944 181.579C206.112 181.495 206.302 181.453 206.514 181.453C206.766 181.453 206.99 181.507 207.186 181.615C207.386 181.723 207.542 181.877 207.654 182.077C207.77 181.893 207.928 181.743 208.128 181.627C208.328 181.511 208.546 181.453 208.782 181.453ZM210.658 183.157C210.658 182.813 210.722 182.511 210.85 182.251C210.982 181.991 211.16 181.791 211.384 181.651C211.608 181.511 211.858 181.441 212.134 181.441C212.37 181.441 212.576 181.489 212.752 181.585C212.932 181.681 213.07 181.807 213.166 181.963V181.489H214.192V184.837H213.166V184.363C213.066 184.519 212.926 184.645 212.746 184.741C212.57 184.837 212.364 184.885 212.128 184.885C211.856 184.885 211.608 184.815 211.384 184.675C211.16 184.531 210.982 184.329 210.85 184.069C210.722 183.805 210.658 183.501 210.658 183.157ZM213.166 183.163C213.166 182.907 213.094 182.705 212.95 182.557C212.81 182.409 212.638 182.335 212.434 182.335C212.23 182.335 212.056 182.409 211.912 182.557C211.772 182.701 211.702 182.901 211.702 183.157C211.702 183.413 211.772 183.617 211.912 183.769C212.056 183.917 212.23 183.991 212.434 183.991C212.638 183.991 212.81 183.917 212.95 183.769C213.094 183.621 213.166 183.419 213.166 183.163ZM216.8 183.967V184.837H216.278C215.906 184.837 215.616 184.747 215.408 184.567C215.2 184.383 215.096 184.085 215.096 183.673V182.341H214.688V181.489H215.096V180.673H216.122V181.489H216.794V182.341H216.122V183.685C216.122 183.785 216.146 183.857 216.194 183.901C216.242 183.945 216.322 183.967 216.434 183.967H216.8ZM217.888 181.141C217.708 181.141 217.56 181.089 217.444 180.985C217.332 180.877 217.276 180.745 217.276 180.589C217.276 180.429 217.332 180.297 217.444 180.193C217.56 180.085 217.708 180.031 217.888 180.031C218.064 180.031 218.208 180.085 218.32 180.193C218.436 180.297 218.494 180.429 218.494 180.589C218.494 180.745 218.436 180.877 218.32 180.985C218.208 181.089 218.064 181.141 217.888 181.141ZM218.398 181.489V184.837H217.372V181.489H218.398ZM220.665 184.885C220.337 184.885 220.041 184.815 219.777 184.675C219.517 184.535 219.311 184.335 219.159 184.075C219.011 183.815 218.937 183.511 218.937 183.163C218.937 182.819 219.013 182.517 219.165 182.257C219.317 181.993 219.525 181.791 219.789 181.651C220.053 181.511 220.349 181.441 220.677 181.441C221.005 181.441 221.301 181.511 221.565 181.651C221.829 181.791 222.037 181.993 222.189 182.257C222.341 182.517 222.417 182.819 222.417 183.163C222.417 183.507 222.339 183.811 222.183 184.075C222.031 184.335 221.821 184.535 221.553 184.675C221.289 184.815 220.993 184.885 220.665 184.885ZM220.665 183.997C220.861 183.997 221.027 183.925 221.163 183.781C221.303 183.637 221.373 183.431 221.373 183.163C221.373 182.895 221.305 182.689 221.169 182.545C221.037 182.401 220.873 182.329 220.677 182.329C220.477 182.329 220.311 182.401 220.179 182.545C220.047 182.685 219.981 182.891 219.981 183.163C219.981 183.431 220.045 183.637 220.173 183.781C220.305 183.925 220.469 183.997 220.665 183.997ZM225.002 181.453C225.394 181.453 225.706 181.581 225.938 181.837C226.174 182.089 226.292 182.437 226.292 182.881V184.837H225.272V183.019C225.272 182.795 225.214 182.621 225.098 182.497C224.982 182.373 224.826 182.311 224.63 182.311C224.434 182.311 224.278 182.373 224.162 182.497C224.046 182.621 223.988 182.795 223.988 183.019V184.837H222.962V181.489H223.988V181.933C224.092 181.785 224.232 181.669 224.408 181.585C224.584 181.497 224.782 181.453 225.002 181.453Z" fill="black"/>
<path d="M127.168 98.256L120.803 88.091L114.181 88.409L121.313 99.081C121.194 99.648 121.293 100.289 121.596 100.933C121.899 101.577 122.395 102.198 123.029 102.726C123.662 103.254 124.408 103.668 125.182 103.922C125.957 104.176 126.728 104.259 127.411 104.163C128.094 104.067 128.66 103.795 129.047 103.377C129.434 102.96 129.625 102.413 129.6 101.799C129.574 101.186 129.333 100.529 128.904 99.903C128.474 99.277 127.873 98.707 127.168 98.256Z" fill="#F7AEAE"/>
<path d="M55.2145 239.636L48.1529 239.635L44.7932 211.545L55.2159 211.546L55.2145 239.636Z" fill="#FFB8B8"/>
<path d="M31.4705 239.636L24.4089 239.635L21.0491 211.545L31.4718 211.546L31.4705 239.636Z" fill="#FFB8B8"/>
<path d="M44.1149 140.99L42.4209 230.106L56.1243 229.23L65.6311 172.468L68.6338 133.766L44.1149 140.99Z" fill="#2F2E41"/>
<path d="M20.5973 126.026L18.677 231.519L34.6585 231.048L38.1105 168.339L44.1151 145.635L68.6335 133.766L64.6305 105.385L28.6034 104.869L20.5973 126.026Z" fill="#2F2E41"/>
<path d="M37.9862 36.9177L36.109 39.8504L31.105 54.2988L35.1081 110.545L58.6261 111.061L61.6279 46.5583L55.3389 38.4514L37.9862 36.9177Z" fill="#CCCCCC"/>
<path d="M64.1675 47.6016L66.3892 43.7123C66.3892 43.7123 67.4528 43.1378 70.6271 44.9188C73.8014 46.6999 102.949 61.072 102.949 61.072L128.59 92.398L112.919 92.796L99.4585 74.521L78.77 66.0665L64.1675 47.6016Z" fill="#2F2E41"/>
<path d="M20.0969 47.5909H17.0947L9.58887 89.388L16.5942 121.897L23.5996 110.029L21.5983 97.129L22.5987 85.776L26.1014 79.068L20.0969 47.5909Z" fill="#2F2E41"/>
<path d="M74.6381 47.5906L58.626 40.8823L54.8732 38.0442L43.6146 89.388L38.3607 36.4961L17.595 47.5905L24.6003 82.68L25.6011 96.096L22.5988 106.933C22.5988 106.933 12.0909 114.673 15.5935 122.93C19.0962 131.186 23.0992 131.702 23.0992 131.702C23.0992 131.702 40.112 115.189 41.1128 111.061C42.1135 106.933 43.6146 99.709 43.6146 99.709C43.6146 99.709 52.1211 132.734 62.1286 132.218C72.1361 131.702 72.1361 120.865 72.1361 120.865L69.6342 109.513L65.6312 97.644L67.6327 78.036L74.6381 47.5906Z" fill="#2F2E41"/>
<path d="M28.767 77.067C29.097 77.066 29.4255 77.029 29.7449 76.957L29.8079 76.942L29.8663 76.917C31.9776 76.004 33.7588 74.799 35.1605 73.334C36.3207 72.1136 37.2253 70.7285 37.8336 69.2405C38.5609 67.459 38.9109 65.5793 38.8667 63.691C38.8658 63.6513 38.865 63.6207 38.865 63.5996C38.865 62.6817 38.2742 61.8763 37.3597 61.5478C36.6599 61.2963 30.3054 59.0457 29.8463 58.883C28.9816 58.5094 28.0592 58.8213 27.9115 58.8758C27.5804 58.9925 21.7061 61.0644 20.4367 61.5856C19.1284 62.1228 18.7793 63.0879 18.7793 63.5734C18.7793 65.7716 19.2208 67.8261 20.0916 69.6796C20.7948 71.1799 21.7915 72.565 23.0382 73.774C25.4436 76.109 27.8496 76.936 27.8728 76.943C28.1604 77.029 28.4629 77.07 28.767 77.067ZM29.3328 75.858C29.1242 75.898 28.644 75.959 28.3309 75.86C27.9333 75.735 25.9195 74.835 24.0376 73.009C21.4376 70.4856 20.1183 67.3138 20.1164 63.5815C20.121 63.5059 20.1833 62.9666 21.0115 62.6266C22.2563 62.1154 28.3622 59.9625 28.4237 59.9408L28.4406 59.9346C28.5685 59.8884 28.9758 59.791 29.2565 59.9178L29.3127 59.9404C29.3807 59.9645 36.1261 62.3535 36.8455 62.612C37.3487 62.7928 37.528 63.2407 37.528 63.5996C37.528 63.6259 37.5288 63.664 37.5299 63.7133C37.5874 66.2671 36.9021 72.5511 29.3328 75.858Z" fill="#3F3D56"/>
<path d="M121.29 104.519C121.835 105.063 122.509 105.168 122.654 104.732C122.733 104.49 123.023 104.441 126.405 104.091C130.614 103.655 131.023 103.64 131.66 103.903C132.22 104.134 132.333 104.302 133.269 106.303C133.732 107.293 134.104 107.937 134.293 108.074C134.788 108.436 135.538 108.529 136.227 108.313C137.414 107.942 137.6 107.921 138.057 108.109L138.513 108.297L139.607 110.984C140.306 112.701 140.747 113.65 140.828 113.614C140.909 113.578 141.314 114.438 141.942 115.979C142.484 117.311 143.016 118.463 143.123 118.539C143.231 118.615 143.386 118.751 143.467 118.84C143.584 118.968 143.759 118.938 144.312 118.694C144.696 118.525 145.025 118.321 145.044 118.241C145.102 117.997 145.313 117.979 145.408 118.211C145.491 118.415 145.582 118.393 146.712 117.895C147.905 117.368 147.926 117.353 147.936 117.014C147.941 116.825 148.043 116.52 148.161 116.337C148.306 116.113 148.342 115.771 148.273 115.295C148.135 114.345 147.895 113.935 147.562 114.081C147.31 114.193 147.272 114.11 144.028 106.248L140.749 98.301L140.666 96.962C140.621 96.225 140.593 95.487 140.603 95.321C140.62 95.06 140.543 95.012 140.002 94.956C139.661 94.92 139.316 94.819 139.235 94.731C139.154 94.643 138.918 94.569 138.711 94.565C138.31 94.558 138.204 94.466 138.366 94.265C138.538 94.051 138.218 93.499 137.858 93.386C137.361 93.231 136.931 93.468 136.713 94.016C136.611 94.272 136.526 94.536 136.524 94.601C136.522 94.666 136.256 94.8 135.932 94.899C135.229 95.114 134.744 94.93 134.367 94.306C134.038 93.763 134.006 93.38 134.237 92.797C134.443 92.28 134.277 92.164 133.814 92.498C133.27 92.89 133.012 93.54 132.999 94.551C132.984 95.658 132.688 96.304 132.053 96.614C130.914 97.171 130.326 97.247 129.622 96.928C129.178 96.727 128.471 96.729 128.244 96.932C128.132 97.031 126.72 97.122 124.565 97.168C120.54 97.253 120.692 97.192 121.001 98.607L121.188 99.464L120.697 99.594C120.427 99.665 120.152 99.737 120.086 99.755C119.919 99.799 120.257 102.175 120.578 103.215C120.78 103.871 120.947 104.176 121.29 104.519ZM134.23 105.788C134.65 105.221 135.452 104.863 136.241 104.892C136.82 104.913 136.841 104.929 137.084 105.526C137.588 106.768 136.83 107.87 135.475 107.864C134.868 107.862 134.456 107.536 134.16 106.824C133.927 106.263 133.932 106.191 134.23 105.788ZM134.008 104.815C134.333 104.672 134.404 104.859 134.129 105.132C133.764 105.495 133.728 105.499 133.782 105.174C133.808 105.02 133.91 104.859 134.008 104.815ZM134.941 103.95C135.288 103.898 135.358 104.037 135.122 104.308C134.992 104.458 134.86 104.493 134.642 104.437C134.375 104.368 134.359 104.339 134.501 104.176C134.589 104.075 134.787 103.974 134.941 103.95ZM135.783 104.032C135.881 103.989 136.03 104.019 136.115 104.099C136.31 104.283 136.269 104.365 135.968 104.394C135.679 104.422 135.535 104.142 135.783 104.032ZM137.146 94.211C137.197 93.905 137.418 93.768 137.712 93.859C137.98 93.943 137.9 94.405 137.595 94.54C137.201 94.714 137.077 94.623 137.146 94.211Z" fill="black"/>
<path d="M28.7957 63.5352C28.8058 63.5443 28.815 63.554 28.825 63.5632C29.5724 62.8674 30.581 62.4746 31.634 62.4692C32.6869 62.4639 33.7 62.8464 34.4554 63.5346C35.2133 64.2253 35.6508 65.1682 35.6731 66.1593C35.6955 67.1504 35.301 68.1098 34.575 68.83L34.576 68.8309L34.5384 68.8673L28.975 74.241L23.208 68.9866L23.2241 68.9711C23.2144 68.9625 23.2043 68.9544 23.1947 68.9457C22.4299 68.2488 21.9916 67.2955 21.976 66.2954C21.9605 65.2954 22.369 64.3305 23.1117 63.613C23.8545 62.8955 24.8706 62.4842 25.9365 62.4696C27.0025 62.455 28.0309 62.8383 28.7957 63.5352Z" fill="#FC8585"/>
<path d="M159.742 160.966C159.783 161.025 159.845 161.066 159.921 161.083C159.996 161.099 160.081 161.091 160.163 161.059C160.245 161.027 160.32 160.972 160.377 160.904C160.434 160.835 160.47 160.756 160.481 160.677C160.893 156.422 160.744 152.256 160.038 148.275C158.963 142.035 156.022 133.494 148.113 128.24C148.075 128.215 148.031 128.199 147.983 128.192C147.934 128.185 147.883 128.188 147.831 128.2C147.779 128.212 147.728 128.234 147.68 128.264C147.633 128.294 147.59 128.331 147.554 128.373C147.519 128.416 147.491 128.463 147.472 128.512C147.454 128.561 147.445 128.611 147.446 128.658C147.447 128.706 147.459 128.751 147.48 128.79C147.501 128.83 147.531 128.863 147.569 128.888C155.315 134.035 158.2 142.423 159.257 148.554C159.953 152.47 160.101 156.568 159.697 160.754C159.686 160.833 159.702 160.907 159.742 160.966Z" fill="#CCCCCC"/>
<path d="M62.3868 16.2889C62.7417 24.643 57.1711 31.5795 49.2486 32.9398C40.6817 34.4107 32.504 29.483 33.4937 19.4511C34.5958 8.2796 38.9435 5.2623 46.6319 2.8002C55.6418 -0.0851963 62.0033 7.2623 62.3868 16.2889Z" fill="#2F2E41"/>
<path d="M39.8161 24.0073C40.432 27.0681 42.1657 29.6854 44.6363 31.2843C47.1069 32.8832 50.1125 33.3328 52.9927 32.5345C55.8729 31.7362 58.3923 29.7552 59.9975 27.0266C61.6026 24.2981 62.1622 21.0451 61.5533 17.9823L61.5202 17.8168C60.8475 14.804 59.0865 12.2504 56.6171 10.7068C54.1476 9.1631 51.1675 8.7532 48.3197 9.5655C45.472 10.3777 42.9847 12.347 41.3945 15.0486C39.8043 17.7501 39.2386 20.9674 39.8194 24.0063L39.8161 24.0073Z" fill="#FFB6B6"/>
<path d="M65.5779 16.647C63.216 17.5978 60.6978 17.9197 58.2454 17.5842C58.0478 16.8346 57.7337 16.1311 57.3162 15.5025C57.3215 16.2551 57.2224 17.0094 57.0222 17.7405C55.1086 19.4942 50.4777 19.2632 46.0061 19.1485L45.1655 7.1985L53.5534 6.1264C60.6061 4.5389 66.1281 9.1252 65.5779 16.647Z" fill="#2F2E41"/>
<path d="M43.1301 1.0843C42.7448 0.667501 42.2634 0.373603 41.7298 0.229603C41.1961 0.0856029 40.6272 0.0959028 40.0749 0.259703C38.9897 0.590103 37.9678 1.1926 37.0909 2.019C35.5848 3.3162 34.2459 4.8444 33.1199 6.5516C32.149 8.0299 31.3598 9.9934 32.2469 11.4034C32.987 12.5799 34.6659 12.8218 36.0251 12.3269C37.3341 11.754 38.5277 10.8537 39.5076 9.7001C40.4761 8.5529 41.5989 7.5804 42.8285 6.8239L41.7659 6.8937C42.4501 6.0631 43.0091 5.1184 43.418 4.1017C43.6139 3.5924 43.6903 3.0458 43.6398 2.5165C43.5893 1.9871 43.4136 1.4934 43.1301 1.0843Z" fill="#2F2E41"/>
<path d="M53.8977 7.8213L44.9202 9.0067C43.7182 9.1654 42.5449 9.5769 41.4673 10.2177C40.3898 10.8585 39.429 11.7161 38.64 12.7414C37.8509 13.7667 37.2489 14.9398 36.8685 16.1936C36.488 17.4474 36.3365 18.7573 36.4226 20.0487C36.6762 23.8471 38.2389 27.3348 40.8055 29.8303C43.372 32.3258 46.758 33.6498 50.3017 33.5437L46.5535 24.284L53.1947 33.232L55.5708 32.9183C46.9828 26.7238 48.6773 17.7492 53.8977 7.8213Z" fill="#2F2E41"/>
</svg>
